<?xml version="1.0" encoding="UTF-8"?><svg id="a" xmlns="http://www.w3.org/2000/svg" viewBox="0 0 2714.6 4000"><rect x="-.38" y="0" width="2717" height="3786.32"/><path d="M2716.62,3767.51H-.38v125.41c34.61,73.59,89.36,101.01,167.29,101.01,65.4,0,121.99-37.79,149.1-92.74,27.11,54.95,83.7,92.74,149.11,92.74s122-37.79,149.11-92.74c27.11,54.95,83.7,92.74,149.11,92.74s121.99-37.79,149.1-92.74c27.11,54.95,83.71,92.74,149.11,92.74s122-37.79,149.11-92.74c26.81,54.35,82.47,91.92,146.96,92.72h.14c.34,0,.67.02,1,0,.11,0,.22,0,.32,0,.34,0,.68,0,1.01,0h.14c64.49-.8,120.15-38.37,146.96-92.72,27.11,54.95,83.7,92.74,149.11,92.74s122-37.79,149.11-92.74c27.11,54.95,83.7,92.74,149.1,92.74s122-37.79,149.11-92.74c27.11,54.95,83.7,92.74,149.11,92.74s122-37.79,149.11-92.74c27.11,54.95,83.7,92.74,149.1,92.74,77.93,0,131.07-27.42,165.68-101.01v-125.41ZM159.26,3819.97c12.7,0,23,10.3,23,23s-10.3,23-23,23-23-10.3-23-23,10.3-23,23-23ZM90.84,3879.03c0-12.7,10.3-23,23-23s23,10.3,23,23-10.3,23-23,23-23-10.3-23-23ZM129.54,3957.47c-12.7,0-23-10.3-23-23s10.3-23,23-23,23,10.3,23,23-10.3,23-23,23ZM157.08,4001.71h-.46v-.02h.14c.34,0,.67.02,1,0-.22,0-.45,0-.68,0h0ZM159.23,4001.71h-.46c-.23,0-.46,0-.69,0,.34,0,.68,0,1.01,0h.14v.02h0ZM139.56,3893.73c0-10.88,8.82-19.7,19.7-19.7s19.7,8.82,19.7,19.7-8.82,19.7-19.7,19.7-19.7-8.82-19.7-19.7ZM188.98,3957.47c-12.7,0-23-10.3-23-23s10.3-23,23-23,23,10.3,23,23-10.3,23-23,23ZM204.67,3902.04c-12.7,0-23-10.3-23-23s10.3-23,23-23,23,10.3,23,23-10.3,23-23,23ZM460.89,3828.51c12.7,0,23,10.3,23,23s-10.3,23-23,23-23-10.3-23-23,10.3-23,23-23ZM392.48,3887.57c0-12.7,10.3-23,23-23s23,10.3,23,23-10.3,23-23,23-23-10.3-23-23ZM431.17,3966.01c-12.7,0-23-10.3-23-23s10.3-23,23-23,23,10.3,23,23-10.3,23-23,23ZM460.89,3921.97c-10.88,0-19.7-8.82-19.7-19.7s8.82-19.7,19.7-19.7,19.7,8.82,19.7,19.7-8.82,19.7-19.7,19.7ZM490.61,3966.01c-12.7,0-23-10.3-23-23s10.3-23,23-23,23,10.3,23,23-10.3,23-23,23ZM506.31,3910.58c-12.7,0-23-10.3-23-23s10.3-23,23-23,23,10.3,23,23-10.3,23-23,23ZM759.99,3828.51c12.7,0,23,10.3,23,23s-10.3,23-23,23-23-10.3-23-23,10.3-23,23-23ZM691.57,3887.57c0-12.7,10.3-23,23-23s23,10.3,23,23-10.3,23-23,23-23-10.3-23-23ZM730.27,3966.01c-12.7,0-23-10.3-23-23s10.3-23,23-23,23,10.3,23,23-10.3,23-23,23ZM759.99,3921.97c-10.88,0-19.7-8.82-19.7-19.7s8.82-19.7,19.7-19.7,19.7,8.82,19.7,19.7-8.82,19.7-19.7,19.7ZM789.71,3966.01c-12.7,0-23-10.3-23-23s10.3-23,23-23,23,10.3,23,23-10.3,23-23,23ZM805.4,3910.58c-12.7,0-23-10.3-23-23s10.3-23,23-23,23,10.3,23,23-10.3,23-23,23ZM1059.08,3828.51c12.7,0,23,10.3,23,23s-10.3,23-23,23-23-10.3-23-23,10.3-23,23-23ZM990.66,3887.57c0-12.7,10.3-23,23-23s23,10.3,23,23-10.3,23-23,23-23-10.3-23-23h0ZM1029.36,3966.01c-12.7,0-23-10.3-23-23s10.3-23,23-23,23,10.3,23,23-10.3,23-23,23ZM1059.08,3921.97c-10.88,0-19.7-8.82-19.7-19.7s8.82-19.7,19.7-19.7,19.7,8.82,19.7,19.7-8.82,19.7-19.7,19.7ZM1088.8,3966.01c-12.7,0-23-10.3-23-23s10.3-23,23-23,23,10.3,23,23-10.3,23-23,23ZM1104.5,3910.58c-12.7,0-23-10.3-23-23s10.3-23,23-23,23,10.3,23,23-10.3,23-23,23ZM1358.18,3828.51c12.7,0,23,10.3,23,23s-10.3,23-23,23-23-10.3-23-23,10.3-23,23-23ZM1289.76,3887.57c0-12.7,10.3-23,23-23s23,10.3,23,23-10.3,23-23,23-23-10.3-23-23ZM1328.46,3966.01c-12.7,0-23-10.3-23-23s10.3-23,23-23,23,10.3,23,23-10.3,23-23,23ZM1358.08,4001.71h-.46v-.02h.14c.34,0,.67.02,1,0-.22,0-.45,0-.68,0h0ZM1358.18,3921.97c-10.88,0-19.7-8.82-19.7-19.7s8.82-19.7,19.7-19.7,19.7,8.82,19.7,19.7-8.82,19.7-19.7,19.7ZM1360.23,4001.71h-.46c-.23,0-.46,0-.69,0,.34,0,.68,0,1.01,0h.14v.02h0ZM1387.9,3966.01c-12.7,0-23-10.3-23-23s10.3-23,23-23,23,10.3,23,23-10.3,23-23,23ZM1403.59,3910.58c-12.7,0-23-10.3-23-23s10.3-23,23-23,23,10.3,23,23-10.3,23-23,23ZM1661.89,3828.51c12.7,0,23,10.3,23,23s-10.3,23-23,23-23-10.3-23-23,10.3-23,23-23ZM1593.48,3887.57c0-12.7,10.3-23,23-23s23,10.3,23,23-10.3,23-23,23-23-10.3-23-23ZM1632.17,3966.01c-12.7,0-23-10.3-23-23s10.3-23,23-23,23,10.3,23,23-10.3,23-23,23ZM1642.19,3902.27c0-10.88,8.82-19.7,19.7-19.7s19.7,8.82,19.7,19.7-8.82,19.7-19.7,19.7-19.7-8.82-19.7-19.7ZM1691.61,3966.01c-12.7,0-23-10.3-23-23s10.3-23,23-23,23,10.3,23,23-10.3,23-23,23ZM1707.31,3910.58c-12.7,0-23-10.3-23-23s10.3-23,23-23,23,10.3,23,23-10.3,23-23,23ZM1960.99,3828.51c12.7,0,23,10.3,23,23s-10.3,23-23,23-23-10.3-23-23,10.3-23,23-23ZM1892.57,3887.57c0-12.7,10.3-23,23-23s23,10.3,23,23-10.3,23-23,23-23-10.3-23-23ZM1931.27,3966.01c-12.7,0-23-10.3-23-23s10.3-23,23-23,23,10.3,23,23-10.3,23-23,23ZM1941.28,3902.27c0-10.88,8.82-19.7,19.7-19.7s19.7,8.82,19.7,19.7-8.82,19.7-19.7,19.7-19.7-8.82-19.7-19.7ZM1990.71,3966.01c-12.7,0-23-10.3-23-23s10.3-23,23-23,23,10.3,23,23-10.3,23-23,23ZM2006.4,3910.58c-12.7,0-23-10.3-23-23s10.3-23,23-23,23,10.3,23,23-10.3,23-23,23ZM2260.08,3828.51c12.7,0,23,10.3,23,23s-10.3,23-23,23-23-10.3-23-23,10.3-23,23-23ZM2191.66,3887.57c0-12.7,10.3-23,23-23s23,10.3,23,23-10.3,23-23,23-23-10.3-23-23ZM2230.36,3966.01c-12.7,0-23-10.3-23-23s10.3-23,23-23,23,10.3,23,23-10.3,23-23,23ZM2240.38,3902.27c0-10.88,8.82-19.7,19.7-19.7s19.7,8.82,19.7,19.7-8.82,19.7-19.7,19.7-19.7-8.82-19.7-19.7ZM2289.8,3966.01c-12.7,0-23-10.3-23-23s10.3-23,23-23,23,10.3,23,23-10.3,23-23,23ZM2305.5,3910.58c-12.7,0-23-10.3-23-23s10.3-23,23-23,23,10.3,23,23-10.3,23-23,23ZM2559.18,3828.51c12.7,0,23,10.3,23,23s-10.3,23-23,23-23-10.3-23-23,10.3-23,23-23ZM2490.76,3887.57c0-12.7,10.3-23,23-23s23,10.3,23,23-10.3,23-23,23-23-10.3-23-23ZM2529.46,3966.01c-12.7,0-23-10.3-23-23s10.3-23,23-23,23,10.3,23,23-10.3,23-23,23ZM2539.47,3902.27c0-10.88,8.82-19.7,19.7-19.7s19.7,8.82,19.7,19.7-8.82,19.7-19.7,19.7-19.7-8.82-19.7-19.7ZM2588.9,3966.01c-12.7,0-23-10.3-23-23s10.3-23,23-23,23,10.3,23,23-10.3,23-23,23ZM2604.59,3910.58c-12.7,0-23-10.3-23-23s10.3-23,23-23,23,10.3,23,23-10.3,23-23,23Z"/></svg>