<svg xmlns="http://www.w3.org/2000/svg" viewBox="120 105 480 250" width="150">
    <defs>
        <style>
            .confeitaria {
                fill: #ffffff;
            }

            .logo {
                fill: #a73130;
            }

            .cesta {
                fill: #ea9860;
            }
        </style>
    </defs>
    <g class="logo">
        <path
            d="M162.69,284c.67-4.92.9-15.19.9-22.79v-126.46h-10.77c2.47-4.02,5.39-10.72,6.73-14.75h30.08c-.67,5.14-.9,15.64-.9,22.79v118.41c0,8.04.22,17.87.9,22.79h-26.94Z" />
        <path
            d="M288.16,284c-1.57-3.13-3.14-8.27-3.14-14.52-6.73,10.72-16.16,16.53-30.3,16.53-21.1,0-36.14-14.52-36.14-42v-47.59h-10.77c2.47-3.57,5.16-10.05,6.73-14.75h30.08c-.45,6.48-.9,16.76-.9,22.79v36.42c0,18.54,10.77,24.8,20.2,24.8,11,0,20.2-8.71,20.2-24.8v-36.42c0-6.03-.22-16.31-.9-22.79h26.94c-.67,6.48-.9,16.76-.9,22.79v56.75c0,10.5,1.12,17.65,3.37,22.79h-24.47Z" />
        <path
            d="M338.21,284c.67-6.7.9-17.43.9-22.79v-126.46h-10.77c2.02-3.57,5.39-10.5,6.73-14.75h30.08c-.67,4.69-.9,15.19-.9,22.79v54.74c6.06-10.95,19.53-17.87,34.57-17.87,29.63,0,50.28,23.24,50.28,52.28,0,31.06-22.67,53.62-52.52,53.62-12.57,0-26.04-5.81-32.32-16.53,0,4.02.22,11.62.45,14.97h-26.49ZM393.66,264.57c16.16,0,29.63-14.3,29.63-31.95s-13.47-31.95-30.08-31.95-29.63,14.52-29.63,31.95,13.47,31.95,30.08,31.95Z" />
        <path
            d="M520.87,134.27h-4.6l-27.99,33.47h18.18l11.91-15.59,11.7,15.59h19.01l-28.2-33.47ZM518.57,178.13c-27.56,0-49.92,22.25-49.92,49.49,0,3.04.28,6.01.81,8.89,2.55,1.24,5.42,2.04,8.58,2.04,5.19,0,9.96-1.61,13.7-4.29-.48-2.13-.73-4.36-.73-6.64,0-16.22,12.31-29.11,27.56-29.11s27.78,12.89,27.78,29.11c0,2.34-.27,4.63-.78,6.81,3.71,2.58,8.38,4.13,13.47,4.13,3.23,0,6.35-1.14,9.18-2.77.45-2.66.69-5.38.69-8.17,0-27.44-22.55-49.49-50.33-49.49Z" />
    </g>
    <g class="cesta">
        <path
            d="M558.95,246.82c-7.6,0-14.28-3.44-18.18-8.65-1.02-1.37-3.11-1.37-4.13,0-3.9,5.21-10.59,8.65-18.18,8.65s-14.28-3.44-18.18-8.65c-1.02-1.37-3.11-1.37-4.13,0-3.9,5.21-10.59,8.65-18.18,8.65s-12.99-4.23-16.76-8.15c-.81-.84-2.18.06-1.72,1.13l16.98,39.18s6.46,7.35,42.24,7.35,41.76-7.35,41.76-7.35l17.47-40.31c.46-1.06-.9-1.97-1.71-1.14-4.06,4.19-10.4,9.29-17.26,9.29Z" />
    </g>
    <g class="confeitaria">
        <path
            d="M221.23,330.51c2.2,0,3.51-.67,4.59-1.66v5.46c-1.57.18-2.47.49-4.72.49-6.34,0-10.93-4.7-10.93-10.52s4.63-10.7,10.93-10.7c1.89,0,3.24.45,4.59.54v5.42c-1.12-.94-2.34-1.57-4.45-1.57-3.42,0-6.12,2.82-6.12,6.31s2.74,6.22,6.12,6.22Z" />
        <path
            d="M251.22,313.59c5.98,0,10.84,4.75,10.84,10.66s-4.86,10.57-10.84,10.57-10.75-4.7-10.75-10.57,4.81-10.66,10.75-10.66ZM251.22,330.47c3.28,0,5.98-2.78,5.98-6.22s-2.7-6.27-5.98-6.27-5.94,2.78-5.94,6.27,2.65,6.22,5.94,6.22Z" />
        <path
            d="M278.02,334.5c.09-1.3.13-3.36.13-4.61v-12.94h-2.16c.63-.98,1.03-1.97,1.44-2.95h5.8v2.82c1.08-1.79,3.19-3.18,5.94-3.18,4.63,0,7.19,3.27,7.19,9.18v7.07c0,1.25.05,3.31.14,4.61h-5.35c.09-1.3.13-3.36.13-4.61v-7.07c0-3.45-1.75-5.15-3.96-5.15-2.47,0-4.09,1.92-4.09,4.92v7.3c0,1.25.04,3.31.13,4.61h-5.35Z" />
        <path
            d="M314.22,334.5c.04-1.03.14-3.13.14-4.57v-11.77h-3.6v-4.16h3.6v-3.13c0-6.22,3.1-9.49,7.82-9.49,1.89,0,2.79.36,4.27.4v4.79c-.67-.76-1.8-1.07-3.19-1.07-2.34,0-3.87,1.84-3.87,5.19v3.31h4.63v4.16h-4.63v11.77c0,1.43.04,3.54.13,4.57h-5.31Z" />
        <path
            d="M354.78,333.78c-1.48.13-3.06,1.07-6.7,1.07-6.21,0-10.75-4.61-10.75-10.52s4.32-10.7,9.89-10.7c6.21,0,9.67,5.51,9.67,9.98,0,.45-.04.98-.09,1.21h-14.3c.18,3.27,2.74,6.04,6.43,6.04,2.43,0,4.05-.31,5.85-1.48v4.39ZM351.63,321.38c-.27-1.93-1.84-4.07-4.45-4.07-2.38,0-4.09,1.75-4.72,4.07h9.17Z" />
        <path
            d="M372.67,334.5c.09-.94.13-3.04.13-4.61v-12.94h-2.16c.54-.67,1.08-2.01,1.44-2.95h5.94c-.09,1.03-.13,2.95-.13,4.57v11.33c0,1.66.04,3.76.13,4.61h-5.35ZM375.33,304.86c1.57,0,2.79,1.3,2.79,2.87s-1.21,2.87-2.79,2.87-2.83-1.3-2.83-2.87,1.26-2.87,2.83-2.87Z" />
        <path
            d="M405.81,334.59c-.81,0-1.89.27-3.24.27-3.64,0-6.75-2.1-6.75-7.48v-9.22h-3.1v-4.16h3.1v-1.39c0-1.48-.05-2.91-.14-3.98h5.26c-.09,1.07-.13,2.51-.13,3.98v1.39h5.62v4.16h-5.62v8.24c0,3.13,1.35,4.3,3.15,4.3.63,0,1.48-.18,1.84-.49v4.39Z" />
        <path
            d="M438.59,333.96c-.81.58-1.71,1.07-3.42,1.07s-2.92-.85-3.28-2.33c-1.12,1.48-3.01,2.33-5.04,2.33-4.23,0-6.88-2.46-6.88-6.04s2.56-6.4,7.19-6.4c1.93,0,3.78.81,4.45,1.7v-1.88c0-2.73-1.48-4.83-4.86-4.83-2.47,0-3.96.9-5.22,2.06v-4.61c1.39-.22,3.1-1.43,6.48-1.43,5.71,0,8.32,3.18,8.32,9.22v6.45c0,1.52.54,1.88,1.21,1.88.4,0,.76-.04,1.03-.22v3.04ZM428.34,331.63c1.84,0,3.37-1.3,3.37-2.91,0-1.52-1.53-2.82-3.37-2.82-2.16,0-3.37,1.3-3.37,2.82,0,1.61,1.21,2.91,3.37,2.91Z" />
        <path
            d="M453.97,334.5c.09-1.52.13-3.04.13-4.57v-12.98h-2.16c.54-.85,1.08-2.06,1.39-2.95h5.35v4.61c.76-3,3.01-5.01,5.53-5.01,1.3,0,1.57.22,2.16.22v5.37c-.76-.49-1.75-.85-2.97-.85-2.52,0-4.23,3.04-4.23,5.82v5.78c0,1.52.04,3.04.13,4.57h-5.35Z" />
        <path
            d="M481.63,334.5c.09-.94.13-3.04.13-4.61v-12.94h-2.16c.54-.67,1.08-2.01,1.44-2.95h5.94c-.09,1.03-.13,2.95-.13,4.57v11.33c0,1.66.04,3.76.13,4.61h-5.35ZM484.28,304.86c1.57,0,2.79,1.3,2.79,2.87s-1.21,2.87-2.79,2.87-2.83-1.3-2.83-2.87,1.26-2.87,2.83-2.87Z" />
        <path
            d="M521.06,333.96c-.81.58-1.71,1.07-3.42,1.07s-2.92-.85-3.28-2.33c-1.12,1.48-3.01,2.33-5.04,2.33-4.23,0-6.88-2.46-6.88-6.04s2.56-6.4,7.19-6.4c1.93,0,3.78.81,4.45,1.7v-1.88c0-2.73-1.48-4.83-4.86-4.83-2.47,0-3.96.9-5.22,2.06v-4.61c1.39-.22,3.1-1.43,6.48-1.43,5.71,0,8.32,3.18,8.32,9.22v6.45c0,1.52.54,1.88,1.21,1.88.4,0,.76-.04,1.03-.22v3.04ZM510.81,331.63c1.84,0,3.37-1.3,3.37-2.91,0-1.52-1.53-2.82-3.37-2.82-2.16,0-3.37,1.3-3.37,2.82,0,1.61,1.21,2.91,3.37,2.91Z" />
    </g>
</svg>